<?xml version="1.0" encoding="utf-8"?>
<!-- Generator: Adobe Illustrator 25.4.1, SVG Export Plug-In . SVG Version: 6.00 Build 0)  -->
<svg version="1.1" id="Layer_1" xmlns="http://www.w3.org/2000/svg" xmlns:xlink="http://www.w3.org/1999/xlink" x="0px" y="0px"
	 viewBox="0 0 432.8 43.9" style="enable-background:new 0 0 432.8 43.9;" xml:space="preserve">
<style type="text/css">
	.st0{fill:#FFFFFF;}
</style>
<g>
	<g>
		<path class="st0" d="M43.5,5.8C42.7,2.5,39.8,0,36.3,0H7.6C3.4,0,0,3.4,0,7.7v28.6c0,4.2,3.4,7.6,7.6,7.6h28.6
			c4.2,0,7.6-3.4,7.6-7.6l-0.1,1c0.6-3.1,1.6-7.1,3.5-9.6c1.3-1.7,3.2-2.9,5.4-2.8c2.4,0.1,4.4,1.6,6,3.2c0.1,0.1,0.3,0.3,0.4,0.4
			c1.2,1.2,2.3,2.4,3.5,3.5c2.6,2.6,5.2,5.2,7.8,7.8c0.5,0.5,1,1,1.5,1.5c3.6,3.6,9.3,3.6,12.9,0l12.9-12.9c3.6-3.6,3.6-9.3,0-12.9
			L84.9,2.7c-3.6-3.6-9.3-3.6-12.9,0c-1.5,1.5-3,3-4.4,4.4c-2.3,2.3-4.6,4.6-7,7c-2.2,2.2-4.6,4.9-8,5c-3.7,0.1-5.9-3.3-7.1-6.3
			C44.6,10.7,43.5,5.8,43.5,5.8z"/>
	</g>
	<g>
		<path class="st0" d="M417.9,12.7c0.4,0.4,0.8,0.9,1.3,1.3c0.9,0.9,1.9,1.9,2.8,2.8c0.2,0.2,0.4,0.4,0.6,0.6c1.3,1.3,3.4,1.3,4.7,0
			l4.7-4.7c1.3-1.3,1.3-3.4,0-4.7l-4.7-4.7c-1.3-1.3-3.4-1.3-4.7,0c-0.5,0.5-1.1,1.1-1.6,1.6c-0.8,0.8-1.7,1.7-2.5,2.5
			c-0.8,0.8-1.7,1.5-2.9,1.6c-1.3,0-2.1-0.9-2.6-2c-0.4-1-0.6-2.1-0.7-3.1c-0.1-0.5-0.1-1-0.2-1.4c-0.1-0.4-0.4-0.7-0.7-0.9
			c-0.4-0.4-1-0.6-1.5-0.6h-7.1c-1.3,0-2.4,1.1-2.4,2.4v37.2c0,1.3,1.1,2.4,2.4,2.4h7.1c1.3,0,2.4-1.1,2.4-2.4c0-0.3,0-0.5,0-0.8
			c0-0.7,0-1.5,0-2.2c0-1.1,0-2.1,0-3.2c0-1.2,0-2.5,0-3.7c0-1.3,0-2.6,0-3.9c0-1.2,0-2.5,0-3.7c0-1,0-2,0-3.1
			c0-1.5-0.1-2.9,0.2-4.3c0.2-1.1,0.5-2.3,1.2-3.2c0.5-0.6,1.2-0.8,1.9-0.8c0.9,0,1.6,0.3,2.2,0.9C417.8,12.6,417.8,12.7,417.9,12.7
			z"/>
		<path class="st0" d="M129.9,30.3l-5.7,4.8c-0.6,0.5-0.7,1.4-0.2,2c1.7,2,4,3.6,6.8,4.9c2.9,1.3,8,2.1,11.2,2
			c4.4-0.2,8-1.3,10.7-3.4c3-2.3,4.6-5.5,4.6-9.6c0-2.1-0.4-3.9-1.2-5.5c-0.8-1.6-2-2.9-3.5-4c-1.5-1.1-2.9-1.9-4.2-2.5
			c-1.3-0.6-2.9-1.2-4.9-1.8c-5.5-1.4-8.2-2.9-8.2-4.6c0-1.8,1.6-2.7,4.9-2.7c2.5,0,4.9,0.9,7.2,2.8c0.5,0.4,1.2,0.4,1.7,0l5.7-4.7
			c0.6-0.5,0.7-1.5,0.1-2.1C150.9,2,146,0,140.2,0c-4.6,0-8.5,1.2-11.5,3.5c-2.7,2-4.1,5.1-4.1,8.4c0,3.6,1.2,6.4,3.5,8.4
			c2.4,2,6.1,3.9,11.3,5.6c2.7,1,4.6,1.9,5.6,2.5c1,0.6,1.5,1.4,1.5,2.4c0,2.2-1.9,3.3-5.8,3.3c-1.9,0-3.7-0.5-5.5-1.5
			c-1.3-0.7-2.4-1.5-3.4-2.3C130.7,29.3,129.9,30.3,129.9,30.3z"/>
		<path class="st0" d="M201.6,1h-9.1c-0.8,0-1.4,0.6-1.4,1.4V23c0,3.2-0.6,5.6-1.8,7.1c-1.2,1.5-3,2.3-5.5,2.3s-4.3-0.8-5.3-2.3
			c-1-1.5-1.5-4-1.5-7.3V2.4c0-0.8-0.6-1.4-1.4-1.4h-9.1c-0.8,0-1.4,0.6-1.4,1.4v25.9c0,2.8,0.5,5.3,1.4,7.5
			c0.9,2.1,2.1,3.8,3.6,4.9c1.5,1.1,3,2,4.6,2.5c1.6,0.5,3.2,0.8,4.9,0.8c5,0,8.9-1.6,11.5-4.8v2.8c0,0.4,0.2,1.1,1.2,1.1h9.3
			c0.8,0,1.4-0.6,1.4-1.4V2.4C203,1.6,202.4,1,201.6,1z"/>
		<path class="st0" d="M270.3,3.8c-2.8-2.5-6.7-3.8-11.8-3.8c-5.9,0-10.3,1.9-13.1,5.8C243.5,1.9,240,0,234.8,0
			c-3.8,0-7,1.6-9.6,4.8V2.5c0-1.6-1.6-1.5-1.6-1.5h-9c-0.8,0-1.4,0.6-1.4,1.4v39.2c0,0.8,0.6,1.4,1.4,1.4h9.2
			c0.8,0,1.4-0.6,1.4-1.4V20.9c0-3.5,0.5-6,1.4-7.3c1-1.4,2.7-2.1,5.3-2.1c2.2,0,3.8,0.7,4.7,2.1c0.9,1.4,1.3,4,1.3,7.6v20.3
			c0,0.8,0.6,1.4,1.4,1.4h9.2c0.8,0,1.4-0.6,1.4-1.4V20.9c0-3.5,0.5-6,1.4-7.3c1-1.4,2.7-2.1,5.3-2.1c2.2,0,3.8,0.7,4.7,2.1
			s1.3,4,1.3,7.6v20.3c0,0.8,0.6,1.4,1.4,1.4h9.2c0.8,0,1.4-0.6,1.4-1.4V17C274.5,10.7,273.1,6.3,270.3,3.8z"/>
		<path class="st0" d="M341.4,3.8c-2.8-2.5-6.7-3.8-11.8-3.8c-5.9,0-10.3,1.9-13.1,5.8c-1.9-3.9-5.4-5.8-10.5-5.8
			c-3.8,0-7,1.6-9.6,4.8V2.5c0-1.6-1.6-1.5-1.6-1.5h-9c-0.8,0-1.4,0.6-1.4,1.4v39.2c0,0.8,0.6,1.4,1.4,1.4h9.2
			c0.8,0,1.4-0.6,1.4-1.4V20.9c0-3.5,0.5-6,1.4-7.3c1-1.4,2.7-2.1,5.3-2.1c2.2,0,3.8,0.7,4.7,2.1c0.9,1.4,1.3,4,1.3,7.6v20.3
			c0,0.8,0.6,1.4,1.4,1.4h9.2c0.8,0,1.4-0.6,1.4-1.4V20.9c0-3.5,0.5-6,1.4-7.3c1-1.4,2.7-2.1,5.3-2.1c2.2,0,3.8,0.7,4.7,2.1
			s1.3,4,1.3,7.6v20.3c0,0.8,0.6,1.4,1.4,1.4h9.2c0.8,0,1.4-0.6,1.4-1.4V17C345.6,10.7,344.2,6.3,341.4,3.8z"/>
		<path class="st0" d="M383.9,30.4c-0.6-0.6-1.4-0.5-2,0c-2.3,2.2-5.1,3.4-8.5,3.4c-2.4,0-4.3-0.6-5.8-1.9c-1.5-1.3-2.4-3.2-2.5-5.9
			h25.5c0,0,1.3,0,1.4-1.1c0.1-1.3,0.2-3,0.2-5.1c0-6.5-1.8-11.4-5.3-14.8c-3.5-3.4-8-5.1-13.6-5.1c-6.1,0-11,2-14.6,5.9
			s-5.4,9.3-5.4,16c0,6.9,1.8,12.3,5.3,16.2s8.4,5.8,14.6,5.8c6.2,0,11.4-2.2,15.4-6.6c0.5-0.6,0.5-1.5-0.1-2L383.9,30.4z M367.7,12
			c1.4-1.2,3.1-1.8,5.3-1.8c4.7,0,7.4,2.3,8,7h-15.7C365.5,14.9,366.3,13.2,367.7,12z"/>
	</g>
</g>
</svg>
